<svg xmlns="http://www.w3.org/2000/svg" width="290" height="70" viewBox="0 0 290 70">
    <g data-name="Group 92565">
        <path data-name="Path 243011" d="M48.822 35.005c0 5.753-3.829 9.329-9.572 9.329h-1.6a1.3 1.3 0 0 0 .028-.269v-2.768h1.572c3.856-.027 6.336-2.447 6.336-6.292s-2.508-6.291-6.363-6.291h-2.508v5.1H33.48v-7.87a.254.254 0 0 1 .27-.269h5.5c5.743.001 9.572 3.604 9.572 9.33zm-19.422-.23a.253.253 0 0 0-.254.253v2.528a.253.253 0 0 0 .254.253h4.081v3.484H30.95c-3.869-.027-6.353-2.464-6.336-6.332a6.331 6.331 0 0 1 6.363-6.25h1.544v-2.77a1.3 1.3 0 0 1 .028-.269h-1.685a9.438 9.438 0 0 0-9.485 9.452c.054 5.681 3.869 9.206 9.57 9.206h5.501a.254.254 0 0 0 .269-.269v-9.29zm9.05-31.636A26.855 26.855 0 0 0 35.979.36a1.3 1.3 0 0 0-1.805.011 26.808 26.808 0 0 0-2.439 2.807 1.269 1.269 0 0 0 .2 1.7 21.686 21.686 0 0 1 2.072 2l.431.484a.861.861 0 0 0 1.295.012l.356-.387.01-.007.131-.145.154-.167.01-.013a20.966 20.966 0 0 1 1.871-1.818 1.265 1.265 0 0 0 .185-1.698zm-6.518 62.017a21 21 0 0 0 1.871-1.818l.01-.013.154-.167.131-.145.009-.007.356-.387a.861.861 0 0 1 1.295.012l.431.484a21.689 21.689 0 0 0 2.072 2 1.269 1.269 0 0 1 .2 1.7 26.817 26.817 0 0 1-2.439 2.807 1.3 1.3 0 0 1-1.805.011 26.857 26.857 0 0 1-2.471-2.779 1.265 1.265 0 0 1 .186-1.698zm-21.439-47.97a20.93 20.93 0 0 0 .643 2.525c0 .005 0 .01.006.015l.068.216.061.185a.07.07 0 0 1 0 .012l.158.5a.857.857 0 0 1-.658 1.112l-.636.13a21.767 21.767 0 0 0-2.777.787 1.276 1.276 0 0 1-1.579-.677 26.726 26.726 0 0 1-1.218-3.509 1.292 1.292 0 0 1 .893-1.565 26.991 26.991 0 0 1 3.649-.744 1.271 1.271 0 0 1 1.39 1.014zm49.213 35.627a20.921 20.921 0 0 0-.643-2.525c0-.005 0-.01-.006-.015l-.068-.216-.061-.185a.069.069 0 0 1 0-.012l-.158-.5a.857.857 0 0 1 .658-1.112l.636-.13a21.752 21.752 0 0 0 2.777-.787 1.276 1.276 0 0 1 1.579.677 26.725 26.725 0 0 1 1.218 3.509 1.292 1.292 0 0 1-.893 1.565 26.978 26.978 0 0 1-3.649.744 1.271 1.271 0 0 1-1.39-1.012zm-52.38-5.47a21.074 21.074 0 0 0 2.514.707h.016l.222.049.191.04h.011l.514.114a.857.857 0 0 1 .637 1.124l-.205.614a21.6 21.6 0 0 0-.7 2.792 1.274 1.274 0 0 1-1.378 1.025 26.927 26.927 0 0 1-3.657-.7 1.292 1.292 0 0 1-.913-1.554 26.8 26.8 0 0 1 1.178-3.524 1.272 1.272 0 0 1 1.569-.687zm55.547-24.687a21.049 21.049 0 0 0-2.514-.707h-.016l-.222-.049-.191-.04h-.011l-.514-.114a.857.857 0 0 1-.637-1.124l.205-.614a21.593 21.593 0 0 0 .7-2.792 1.274 1.274 0 0 1 1.378-1.025 26.915 26.915 0 0 1 3.657.7 1.292 1.292 0 0 1 .913 1.554 26.793 26.793 0 0 1-1.171 3.521 1.272 1.272 0 0 1-1.577.69zM39.791 60.688a.209.209 0 0 0 .065.242l2.572 2.023a.22.22 0 0 0 .341-.091l1.213-3.034a.209.209 0 0 0-.065-.242l-2.8-2.2zm.744-5.457 1.4 1.1 2.8 2.2a1.547 1.547 0 0 1 .478 1.78L44 63.345a1.548 1.548 0 0 1-1.445.977 1.564 1.564 0 0 1-.963-.333l-2.572-2.023a1.547 1.547 0 0 1-.478-1.78l1.322-3.307.663-1.657zM27.43 7.139l-1.213 3.034a.209.209 0 0 0 .065.242l2.8 2.2 1.322-3.307a.209.209 0 0 0-.065-.242l-2.572-2.023a.22.22 0 0 0-.341.091zm.2-1.47a1.564 1.564 0 0 1 .963.333l2.572 2.023a1.547 1.547 0 0 1 .478 1.78l-1.322 3.307-.663 1.657-1.4-1.1-2.8-2.2a1.547 1.547 0 0 1-.478-1.78l1.213-3.034a1.548 1.548 0 0 1 1.445-.977zm32.12 20.539-2.211 2.8 3.316 1.318a.21.21 0 0 0 .242-.065l2.028-2.564a.219.219 0 0 0-.091-.34l-3.042-1.21a.21.21 0 0 0-.242.065zm.165-1.411a1.541 1.541 0 0 1 .572.11l3.042 1.21a1.549 1.549 0 0 1 .645 2.4l-2.028 2.564a1.548 1.548 0 0 1-1.785.477l-3.316-1.318-1.662-.661 1.108-1.4 2.211-2.8a1.538 1.538 0 0 1 1.213-.587zM9.091 39.744l-2.028 2.564a.219.219 0 0 0 .091.34l3.042 1.21a.21.21 0 0 0 .242-.065l2.211-2.8-3.316-1.318a.21.21 0 0 0-.242.065zm.165-1.411a1.543 1.543 0 0 1 .572.11l3.322 1.313 1.662.661-1.108 1.4-2.211 2.8a1.548 1.548 0 0 1-1.785.477l-3.042-1.21a1.549 1.549 0 0 1-.645-2.4l2.028-2.564a1.538 1.538 0 0 1 1.213-.587zm42.782 16.575a.209.209 0 0 0 .177.177l3.241.469h.032a.22.22 0 0 0 .217-.251l-.471-3.232a.209.209 0 0 0-.177-.177l-3.533-.512zm-2.092-5.1 1.77.256 3.533.512a1.552 1.552 0 0 1 1.307 1.3l.471 3.232a1.553 1.553 0 0 1-1.539 1.774 1.574 1.574 0 0 1-.224-.016l-3.241-.469a1.552 1.552 0 0 1-1.307-1.3l-.513-3.523-.257-1.765zM14.482 14.693l.471 3.232a.209.209 0 0 0 .177.177l3.533.512-.513-3.523a.209.209 0 0 0-.177-.177l-3.241-.469H14.7a.22.22 0 0 0-.213.25zm.217-1.583a1.563 1.563 0 0 1 .224.016l3.241.469a1.552 1.552 0 0 1 1.307 1.3l.513 3.523.257 1.766-1.771-.256-3.533-.512a1.552 1.552 0 0 1-1.307-1.3l-.471-3.232a1.553 1.553 0 0 1 1.539-1.774zm40.757 1.334-3.241.469a.209.209 0 0 0-.177.177l-.513 3.523 3.533-.512a.21.21 0 0 0 .177-.177l.471-3.232a.22.22 0 0 0-.217-.251zm.032-1.334a1.553 1.553 0 0 1 1.539 1.774l-.471 3.232a1.552 1.552 0 0 1-1.307 1.3l-3.533.512-1.77.256.257-1.766.513-3.523a1.552 1.552 0 0 1 1.307-1.3l3.241-.469a1.566 1.566 0 0 1 .224-.016zM15.135 51.896a.209.209 0 0 0-.177.177l-.471 3.232a.22.22 0 0 0 .217.251h.032l3.241-.469a.209.209 0 0 0 .177-.177l.513-3.523zm5.112-2.086-.257 1.765-.513 3.523a1.552 1.552 0 0 1-1.307 1.3l-3.241.469a1.576 1.576 0 0 1-.224.016 1.553 1.553 0 0 1-1.539-1.774l.471-3.232a1.552 1.552 0 0 1 1.307-1.3l3.533-.512 1.771-.256zM60.86 39.678l-3.316 1.318 2.211 2.8a.21.21 0 0 0 .242.065l3.042-1.21a.219.219 0 0 0 .091-.34l-2.028-2.564a.21.21 0 0 0-.242-.065zm.078-1.346a1.538 1.538 0 0 1 1.213.587l2.028 2.564a1.549 1.549 0 0 1-.645 2.4l-3.042 1.21a1.548 1.548 0 0 1-1.785-.477l-2.211-2.8-1.108-1.4 1.662-.661 3.316-1.318a1.542 1.542 0 0 1 .572-.11zM10.201 26.143l-3.042 1.21a.219.219 0 0 0-.091.34l2.028 2.563a.21.21 0 0 0 .242.065l3.316-1.318-2.211-2.8a.21.21 0 0 0-.242-.065zm.078-1.346a1.538 1.538 0 0 1 1.213.587l2.211 2.8 1.108 1.4-1.662.661-3.316 1.318a1.548 1.548 0 0 1-1.785-.477L6.02 28.522a1.549 1.549 0 0 1 .645-2.4l3.042-1.21a1.542 1.542 0 0 1 .572-.11zM42.428 7.048l-2.572 2.023a.209.209 0 0 0-.065.242l1.322 3.307 2.8-2.2a.209.209 0 0 0 .065-.242l-1.213-3.034a.22.22 0 0 0-.341-.091zm.136-1.379a1.548 1.548 0 0 1 1.445.977l1.213 3.034a1.547 1.547 0 0 1-.478 1.78l-2.8 2.2-1.4 1.1-.663-1.657-1.322-3.307a1.547 1.547 0 0 1 .478-1.78l2.572-2.023a1.564 1.564 0 0 1 .963-.333zM26.282 59.586a.209.209 0 0 0-.065.242l1.213 3.034a.22.22 0 0 0 .341.091l2.572-2.023a.209.209 0 0 0 .065-.242l-1.322-3.307zm3.381-4.355.663 1.657 1.322 3.307a1.547 1.547 0 0 1-.478 1.78l-2.571 2.022a1.564 1.564 0 0 1-.963.333 1.548 1.548 0 0 1-1.445-.977l-1.213-3.034a1.547 1.547 0 0 1 .478-1.78l2.8-2.2 1.4-1.1zM17.219 11.297a25.088 25.088 0 0 1 3.357.854 1.5 1.5 0 0 1 .8.65c.473.761 1.544 2.583 2.017 3.344a1.728 1.728 0 0 1 .271.984 20.946 20.946 0 0 0 .026 3.148 1.513 1.513 0 0 0 .119.473l.626.047c.094.007.189.011.283.011a3.746 3.746 0 0 0 3.376-2.117l.317-.658a1.5 1.5 0 0 0-.335-.313 21.108 21.108 0 0 0-2.738-1.567 1.729 1.729 0 0 1-.725-.718c-.431-.785-1.481-2.619-1.913-3.4a1.5 1.5 0 0 1-.172-1.017 24.429 24.429 0 0 1 .912-3.343 1.442 1.442 0 0 0-.789-1.787 30.72 30.72 0 0 0-4.025-1.338 1.476 1.476 0 0 0-1.774 1.036 30.425 30.425 0 0 0-.8 4.153 1.448 1.448 0 0 0 1.167 1.558zm-4.347 24.382c-.9.028-3.015.042-3.913.07a1.508 1.508 0 0 0-.965.368 25 25 0 0 0-2.42 2.472 1.455 1.455 0 0 1-1.944.228 30.553 30.553 0 0 1-3.206-2.77 1.469 1.469 0 0 1-.013-2.051 30.614 30.614 0 0 1 3.175-2.806 1.451 1.451 0 0 1 1.947.212A24.533 24.533 0 0 0 7.98 33.86a1.512 1.512 0 0 0 .97.36c.9.02 3.016.03 3.913.051a1.735 1.735 0 0 0 .986-.267 21.108 21.108 0 0 1 2.73-1.581 1.5 1.5 0 0 1 .44-.133l.413.6a3.725 3.725 0 0 1 0 4.213l-.354.516a1.52 1.52 0 0 1-.47-.134 21.081 21.081 0 0 1-2.747-1.552 1.741 1.741 0 0 0-.989-.254zm28.96-17.554a1.514 1.514 0 0 1 .351-.339 21.081 21.081 0 0 1 2.721-1.6 1.735 1.735 0 0 0 .719-.725c.424-.789 1.471-2.625 1.9-3.414a1.5 1.5 0 0 0 .163-1.018 24.926 24.926 0 0 0-.937-3.326 1.446 1.446 0 0 1 .774-1.793 30.639 30.639 0 0 1 4.009-1.383 1.476 1.476 0 0 1 1.787 1.014 30.5 30.5 0 0 1 .85 4.145 1.444 1.444 0 0 1-1.157 1.575 24.6 24.6 0 0 0-3.359.884 1.508 1.508 0 0 0-.8.658c-.466.765-1.534 2.589-2 3.354a1.724 1.724 0 0 0-.261.985 20.969 20.969 0 0 1 .008 3.148 1.49 1.49 0 0 1-.1.446l-.73.055a3.824 3.824 0 0 1-.283.011 3.746 3.746 0 0 1-3.376-2.117zm27.955 17.877a30.613 30.613 0 0 1-3.175 2.806 1.451 1.451 0 0 1-1.947-.212 24.527 24.527 0 0 0-2.447-2.458 1.512 1.512 0 0 0-.97-.36c-.9-.02-3.016-.03-3.913-.051a1.735 1.735 0 0 0-.986.267 21.118 21.118 0 0 1-2.73 1.581 1.5 1.5 0 0 1-.44.133l-.413-.6a3.726 3.726 0 0 1 0-4.213l.354-.516a1.523 1.523 0 0 1 .47.134 21.068 21.068 0 0 1 2.747 1.552 1.742 1.742 0 0 0 .99.258c.9-.028 3.015-.042 3.913-.07a1.508 1.508 0 0 0 .965-.368 24.994 24.994 0 0 0 2.42-2.472 1.455 1.455 0 0 1 1.944-.228 30.577 30.577 0 0 1 3.206 2.77 1.469 1.469 0 0 1 .012 2.048zM54.15 60.268a30.429 30.429 0 0 1-.8 4.153 1.476 1.476 0 0 1-1.775 1.036 30.722 30.722 0 0 1-4.025-1.338 1.442 1.442 0 0 1-.789-1.787 24.428 24.428 0 0 0 .911-3.343 1.5 1.5 0 0 0-.172-1.017c-.431-.785-1.482-2.62-1.913-3.4a1.73 1.73 0 0 0-.725-.718 21.108 21.108 0 0 1-2.738-1.567 1.5 1.5 0 0 1-.335-.313l.317-.658a3.746 3.746 0 0 1 3.376-2.117c.094 0 .189 0 .283.011l.626.047a1.508 1.508 0 0 1 .119.473 20.939 20.939 0 0 1 .026 3.148 1.729 1.729 0 0 0 .27.984c.473.761 1.544 2.583 2.017 3.344a1.5 1.5 0 0 0 .8.65 25.1 25.1 0 0 0 3.357.854 1.448 1.448 0 0 1 1.17 1.558zm-25.783-8.393a1.518 1.518 0 0 1-.351.339 21.075 21.075 0 0 1-2.721 1.6 1.736 1.736 0 0 0-.719.725c-.424.789-1.471 2.625-1.9 3.414a1.5 1.5 0 0 0-.163 1.018 24.9 24.9 0 0 0 .937 3.326 1.446 1.446 0 0 1-.774 1.793 30.627 30.627 0 0 1-4.009 1.383 1.476 1.476 0 0 1-1.787-1.014 30.481 30.481 0 0 1-.85-4.145 1.444 1.444 0 0 1 1.157-1.575 24.605 24.605 0 0 0 3.359-.884 1.508 1.508 0 0 0 .8-.658c.466-.765 1.534-2.589 2-3.354a1.723 1.723 0 0 0 .261-.986 20.977 20.977 0 0 1-.008-3.148 1.489 1.489 0 0 1 .1-.446l.73-.055c.094-.007.189-.011.283-.011a3.747 3.747 0 0 1 3.376 2.117zM24.35 21.956l-8.812-.667c-.064 0-.127-.006-.19-.006a2.35 2.35 0 0 0-1.935 3.676l4.987 7.277c.02.03.042.06.06.092a16.782 16.782 0 0 1 6-10.365zm-5.89 15.715c-.019.031-.04.061-.06.092l-4.986 7.277a2.349 2.349 0 0 0 1.934 3.676c.063 0 .126 0 .19-.008l8.813-.666.113-.006a16.774 16.774 0 0 1-6.007-10.364zm22.59-18.477-3.827-7.945a2.36 2.36 0 0 0-4.248 0l-3.827 7.945c-.015.031-.03.063-.048.094a16.977 16.977 0 0 1 12 0c-.02-.032-.035-.063-.05-.094zM35.1 51.807a16.872 16.872 0 0 1-6-1.1c.016.031.033.064.048.1l3.827 7.943a2.36 2.36 0 0 0 4.248 0l3.827-7.943.048-.1a16.861 16.861 0 0 1-5.998 1.1zm21.688-6.765-4.986-7.277a2.145 2.145 0 0 1-.062-.093 16.774 16.774 0 0 1-6 10.366l.113.006 8.813.666c.064.005.128.008.191.008a2.35 2.35 0 0 0 1.931-3.677zM54.85 21.284c-.062 0-.126 0-.19.006l-8.812.667-.112.006a16.779 16.779 0 0 1 6 10.366c.02-.031.04-.063.062-.093l4.986-7.277a2.35 2.35 0 0 0-1.934-3.675z"/>
        <path data-name="Path 243010" d="M100.45 37.309v4.812a8.4 8.4 0 0 1-2.085 1.75 13.122 13.122 0 0 1-3.324 1.443 15.147 15.147 0 0 1-4.272.569 12.338 12.338 0 0 1-5.8-1.3 9.322 9.322 0 0 1-3.849-3.689 12.36 12.36 0 0 1-.015-11.286 9.224 9.224 0 0 1 3.879-3.66 12.878 12.878 0 0 1 5.963-1.3 21.816 21.816 0 0 1 3.12.219 23.3 23.3 0 0 1 2.8.569 9.785 9.785 0 0 1 2.129.817l.058 4.987h-.262a7.89 7.89 0 0 0-1.6-3.164 6.016 6.016 0 0 0-2.435-1.691 8.417 8.417 0 0 0-2.931-.51 6.805 6.805 0 0 0-4.024 1.152 7 7 0 0 0-2.464 3.281 15.957 15.957 0 0 0-.058 9.988 6.887 6.887 0 0 0 2.26 3.208 5.968 5.968 0 0 0 3.616 1.152 6.549 6.549 0 0 0 2.085-.335 5.285 5.285 0 0 0 1.764-.977 3.533 3.533 0 0 0 1.079-1.575l.029-4.462q0-1.312-1.487-1.312h-.467v-.292h8.194v.292h-.437q-1.525.002-1.466 1.314zm13.361-9.6a11.419 11.419 0 0 1 5.188 1.107 8.13 8.13 0 0 1 3.409 3.123 10.234 10.234 0 0 1 0 9.643 8.1 8.1 0 0 1-3.409 3.135 12.709 12.709 0 0 1-10.377 0 8.047 8.047 0 0 1-3.4-3.123 10.329 10.329 0 0 1 0-9.643 8.025 8.025 0 0 1 3.4-3.135 11.42 11.42 0 0 1 5.189-1.109zm0 17.071a4.861 4.861 0 0 0 3.048-.983 6.164 6.164 0 0 0 1.966-2.775 13.573 13.573 0 0 0 0-8.51 6.168 6.168 0 0 0-1.966-2.775 5.18 5.18 0 0 0-6.072 0 6.243 6.243 0 0 0-1.978 2.775 13.342 13.342 0 0 0 0 8.51 6.239 6.239 0 0 0 1.978 2.775 4.822 4.822 0 0 0 3.024.98zm13.413-14.906h-.075a1.6 1.6 0 0 0-.485-1.108 1.511 1.511 0 0 0-1.107-.46h-.324v-.249h1.991zm0 13.786v1.817h-1.991v-.249h.324a1.509 1.509 0 0 0 1.107-.46 1.6 1.6 0 0 0 .485-1.107zm3.658-15.6v17.419h-3.733V28.06zm-.075 1.817V28.06h1.991v.249h-.326a1.51 1.51 0 0 0-1.107.46 1.6 1.6 0 0 0-.485 1.108zm6.644 14.532.6 1.07h-7.241v-1.07zm1.817-4.006-1.145 5.076h-4.877l.9-1.07a4.731 4.731 0 0 0 2.19-.485 4.625 4.625 0 0 0 1.618-1.394 7.425 7.425 0 0 0 1.07-2.128zm3.16-10.526h-.075a1.492 1.492 0 0 0-.473-1.108 1.552 1.552 0 0 0-1.12-.46h-.3l-.025-.249h1.991zm0 13.786v1.817h-1.991v-.249h.324a1.509 1.509 0 0 0 1.107-.46 1.6 1.6 0 0 0 .485-1.107zm3.658-15.6v17.419h-3.733V28.063zm3.384 0a11.347 11.347 0 0 1 5.077 1.057 7.7 7.7 0 0 1 3.3 3.011 9.885 9.885 0 0 1 0 9.282 7.688 7.688 0 0 1-3.3 3.011 11.34 11.34 0 0 1-5.077 1.058h-5.923l-.025-1.045h5.65a5.135 5.135 0 0 0 3.086-.933 5.9 5.9 0 0 0 1.991-2.65 12.3 12.3 0 0 0 0-8.162 5.9 5.9 0 0 0-1.991-2.65 5.134 5.134 0 0 0-3.086-.933h-5.9v-1.045zm13.064 1.817h-.075a1.6 1.6 0 0 0-.485-1.108 1.511 1.511 0 0 0-1.107-.46h-.324v-.249h1.991zm0 13.786v1.817h-1.991v-.249h.324a1.509 1.509 0 0 0 1.107-.46 1.6 1.6 0 0 0 .485-1.107zm3.658-15.6v17.419h-3.733V28.066zm6.868 0v1.07h-6.943v-1.07zm-1.219 8.311v1.045h-5.724v-1.045zm.921 8.038.6 1.07h-7.241v-1.07zm1.817-4.006-1.145 5.076h-4.877l.9-1.07a4.732 4.732 0 0 0 2.19-.485 4.625 4.625 0 0 0 1.618-1.394 7.426 7.426 0 0 0 1.07-2.128zm-2.737-6.37v2.389h-2.364v-.05a2.118 2.118 0 0 0 1.518-.634 2.068 2.068 0 0 0 .6-1.505v-.2zm0 3.335v2.389h-.249v-.224a2.026 2.026 0 0 0-.6-1.493 2.144 2.144 0 0 0-1.518-.622v-.05zm1.219-9.755v.722l-3.036-.274a9.513 9.513 0 0 0 1.157-.075q.609-.075 1.132-.174a3.725 3.725 0 0 0 .747-.211zm0 1.443v2.911h-.249v-.3a2.516 2.516 0 0 0-.684-1.841 2.563 2.563 0 0 0-1.854-.722v-.05zm4.877 14.657v1.767h-2.066v-.249h.473a1.53 1.53 0 0 0 1.518-1.518zm-.124-16.026 3.583 3.807.025 13.985h-3.558V30.803a18.3 18.3 0 0 0-.3-3.111zm0 0 15.876 15.13.3 3.011-15.876-15.1zm3.608 16.026a1.53 1.53 0 0 0 1.518 1.518h.473v.249h-2.065v-1.767zm6.943-15.652h2.065v1.767h-.05a1.562 1.562 0 0 0-.46-1.083 1.471 1.471 0 0 0-1.082-.435h-.473zm5.549 0v14.582a16.423 16.423 0 0 0 .075 1.655q.075.734.224 1.531h-.224l-3.608-4.031V28.068zm1.991 0v.249h-.448a1.483 1.483 0 0 0-1.07.435 1.535 1.535 0 0 0-.473 1.083h-.075v-1.767zm10.525-.865h-.088a1.748 1.748 0 0 0-.554-1.3 1.818 1.818 0 0 0-1.312-.539h-.35l-.029-.292h2.333zm0 16.156v2.129h-2.333v-.292h.379a1.769 1.769 0 0 0 1.3-.539 1.878 1.878 0 0 0 .569-1.3zm4.287-18.284v20.413h-4.375V25.074zm3.966 0a13.293 13.293 0 0 1 5.949 1.24 9.015 9.015 0 0 1 3.864 3.528 11.583 11.583 0 0 1 0 10.877 9.01 9.01 0 0 1-3.864 3.529 13.289 13.289 0 0 1-5.949 1.239h-6.941l-.029-1.225h6.62a6.016 6.016 0 0 0 3.616-1.094 6.92 6.92 0 0 0 2.333-3.106 14.415 14.415 0 0 0 0-9.565 6.919 6.919 0 0 0-2.333-3.106 6.015 6.015 0 0 0-3.616-1.094h-6.911v-1.225zm15.371 4.811h-.075a1.6 1.6 0 0 0-.485-1.108 1.511 1.511 0 0 0-1.107-.46h-.324v-.249h1.991zm0 13.786v1.817h-1.992v-.249h.324a1.509 1.509 0 0 0 1.107-.46 1.6 1.6 0 0 0 .485-1.107zm3.658-15.6V45.49h-3.733V28.071zm-.075 1.817v-1.817h1.991v.249h-.324a1.51 1.51 0 0 0-1.107.46 1.6 1.6 0 0 0-.485 1.108zm0 13.786h.075a1.6 1.6 0 0 0 .485 1.107 1.508 1.508 0 0 0 1.107.46h.324v.249h-1.991zm6.321 0a1.192 1.192 0 0 0-.075.846 1.008 1.008 0 0 0 .423.535 1.12 1.12 0 0 0 .6.187h.224v.249h-5.325v-.249h.224a2.319 2.319 0 0 0 1.182-.361 2.656 2.656 0 0 0 1.008-1.207zm5.35-16.1.1 3.036-6.171 14.806h-1.817l6.445-14.582q.075-.149.261-.56t.4-.933q.211-.523.386-1.008a2.431 2.431 0 0 0 .174-.759zm2.613 11.994v1.045h-7.316v-1.064zm-2.613-11.994 8.112 17.768h-4.454l-5.176-12.965zm2.986 16.1h4.355a2.832 2.832 0 0 0 1.02 1.207 2.253 2.253 0 0 0 1.169.361h.2v.249h-7.913v-.249h.224a1.144 1.144 0 0 0 .871-.411 1.045 1.045 0 0 0 .073-1.173zm9.157-13.786h-.079a1.6 1.6 0 0 0-.485-1.108 1.511 1.511 0 0 0-1.107-.46h-.323v-.249h1.991zm0 13.786v1.817h-1.991v-.249h.323a1.509 1.509 0 0 0 1.107-.46 1.6 1.6 0 0 0 .485-1.107zm3.658-15.6v17.419h-3.737V28.074zm2.887 0a9.65 9.65 0 0 1 2.19.249 5.856 5.856 0 0 1 1.9.8 4.053 4.053 0 0 1 1.331 1.443 4.509 4.509 0 0 1 .5 2.215 5.311 5.311 0 0 1-.435 2.078 4.539 4.539 0 0 1-1.331 1.767 4.265 4.265 0 0 1-2.314.883 3.606 3.606 0 0 1 1.456.9 7.9 7.9 0 0 1 1.083 1.294q.024.05.286.448t.647.983q.386.585.809 1.182t.771 1.045a10.359 10.359 0 0 0 1 1.082 2.918 2.918 0 0 0 .946.6 3.646 3.646 0 0 0 1.145.212v.249h-2.439a11.023 11.023 0 0 1-2.439-.249 5.806 5.806 0 0 1-1.941-.809 5.087 5.087 0 0 1-1.468-1.53 7.775 7.775 0 0 1-.436-.759q-.237-.46-.485-.983t-.485-1.008q-.237-.485-.41-.883t-.249-.622a3.268 3.268 0 0 0-.759-1.195 1.767 1.767 0 0 0-.933-.473v-.249h.771a3.261 3.261 0 0 0 1.306-.274 2.949 2.949 0 0 0 1.132-.9 3.807 3.807 0 0 0 .7-1.717q.05-.224.087-.522a3.571 3.571 0 0 0 .013-.672 3.863 3.863 0 0 0-.9-2.625 2.837 2.837 0 0 0-2.041-.859q-.349-.024-.759-.012t-.747.012h-.46c0-.016-.021-.112-.062-.286s-.1-.444-.187-.809zm-2.961 15.6h.075a1.489 1.489 0 0 0 .473 1.107 1.549 1.549 0 0 0 1.12.46h.3v.249h-1.966zm16.945-13.825-4.205-.075a3.325 3.325 0 0 0-1.02-1.02 2.594 2.594 0 0 0-1.468-.448h-.348v-.249h8.233v.249h-.323a.906.906 0 0 0-.834.51 1.064 1.064 0 0 0-.035 1.033zm-.97-1.767 5.1 9.257-3.534.348-5.823-9.606zm1.568 15.578v1.817h-1.991v-.249h.324a1.509 1.509 0 0 0 1.107-.46 1.6 1.6 0 0 0 .485-1.107zm3.658-6.2v8.013h-3.733V37.46zm4.006-9.382h1.941l-6.221 9.879-1.244-.249zm-4.081 15.578h.075a1.489 1.489 0 0 0 .473 1.107 1.549 1.549 0 0 0 1.12.46h.3v.249h-1.966zm3.061-13.807a.847.847 0 0 0 .124-.709 1.19 1.19 0 0 0-.373-.6.926.926 0 0 0-.622-.236h-.3v-.249h5.947v.249h-.348a2.612 2.612 0 0 0-1.456.448 3.563 3.563 0 0 0-1.058 1.02z"/>
    </g>
</svg>
