<svg xmlns="http://www.w3.org/2000/svg" width="40" height="40" viewBox="0 0 40 40">
    <g data-name="Group 92541">
        <g data-name="Ellipse 5165" style="fill:#f2b238;stroke:#ffefc9;stroke-width:2px">
            <circle cx="20" cy="20" r="20" style="stroke:none"/>
            <circle cx="20" cy="20" r="19" style="fill:none"/>
        </g>
        <g data-name="Group 92540">
            <path data-name="Path 243018" d="M27.9 12H11.628A1.628 1.628 0 0 0 10 13.628v1.51l8.8 5.866a1.742 1.742 0 0 0 1.934 0l8.8-5.866v-1.51A1.628 1.628 0 0 0 27.906 12z"/>
            <path data-name="Path 243019" d="M19.766 22.461a2.894 2.894 0 0 1-1.612-.49l-8.155-5.437v9.881a1.628 1.628 0 0 0 1.628 1.628h16.272a1.628 1.628 0 0 0 1.628-1.628v-9.881l-8.153 5.436a2.9 2.9 0 0 1-1.612.49z"/>
        </g>
    </g>
</svg>
