<svg xmlns="http://www.w3.org/2000/svg" width="40" height="40" viewBox="0 0 40 40">
    <g data-name="Group 92538">
        <g data-name="Ellipse 5165" style="fill:#f2b238;stroke:#ffefc9;stroke-width:2px">
            <circle cx="20" cy="20" r="20" style="stroke:none"/>
            <circle cx="20" cy="20" r="19" style="fill:none"/>
        </g>
        <path data-name="Icon awesome-phone" d="m11.654 11.865 3.656-.843a.849.849 0 0 1 .967.489l1.688 3.937a.842.842 0 0 1-.243.984l-2.13 1.744a13.029 13.029 0 0 0 6.23 6.23l1.744-2.13a.843.843 0 0 1 .984-.243l3.937 1.687a.854.854 0 0 1 .492.97l-.844 3.656a.843.843 0 0 1-.823.654 16.311 16.311 0 0 1-16.311-16.312.843.843 0 0 1 .653-.823z"/>
    </g>
</svg>
